<?xml version="1.0" encoding="utf-8"?>
<svg viewBox="67.497 67.662 280.151 280.033" xmlns="http://www.w3.org/2000/svg" xmlns:bx="https://boxy-svg.com">
  <path d="M 16.497 277.984 H 41.406 L 41.406 277.984 L 41.497 285.484 L 41.406 292.984 L 41.406 292.984 H 16.497 V 277.984 Z" style="stroke: rgb(255, 221, 0); stroke-width: 0px; fill: rgb(229, 191, 23);" transform="matrix(0.707106, 0.707107, -0.707107, 0.707106, 479.568573, 69.484665)" bx:shape="arrow 16.497 277.984 25 15 15 0.091 0 1@0a7c1545"/>
  <ellipse style="fill-rule: nonzero; stroke: rgb(255, 221, 0); stroke-width: 0px; fill: rgb(229, 191, 23);" cx="207.8" cy="207.257" rx="100" ry="100"/>
  <path d="M 16.497 277.984 H 41.406 L 41.406 277.984 L 41.497 285.484 L 41.406 292.984 L 41.406 292.984 H 16.497 V 277.984 Z" style="stroke: rgb(255, 221, 0); stroke-width: 0px; fill: rgb(229, 191, 23);" transform="matrix(0.382683, 0.92388, -0.92388, 0.382683, 508.078461, 185.272827)" bx:shape="arrow 16.497 277.984 25 15 15 0.091 0 1@0a7c1545"/>
  <path d="M 16.497 277.984 H 41.406 L 41.406 277.984 L 41.497 285.484 L 41.406 292.984 L 41.406 292.984 H 16.497 V 277.984 Z" style="stroke: rgb(255, 221, 0); stroke-width: 0px; fill: rgb(229, 191, 23);" transform="matrix(0.923879, 0.382684, -0.382684, 0.923879, 405.328735, -23.328909)" bx:shape="arrow 16.497 277.984 25 15 15 0.091 0 1@0a7c1545"/>
  <path d="M 16.497 277.984 H 41.406 L 41.406 277.984 L 41.497 285.484 L 41.406 292.984 L 41.406 292.984 H 16.497 V 277.984 Z" style="stroke: rgb(255, 221, 0); stroke-width: 0px; fill: rgb(229, 191, 23);" transform="matrix(-0.707106, -0.707107, 0.707107, -0.707106, -61.560589, 340.549469)" bx:shape="arrow 16.497 277.984 25 15 15 0.091 0 1@0a7c1545"/>
  <path d="M 16.497 277.984 H 41.406 L 41.406 277.984 L 41.497 285.484 L 41.406 292.984 L 41.406 292.984 H 16.497 V 277.984 Z" style="stroke: rgb(255, 221, 0); stroke-width: 0px; fill: rgb(229, 191, 23);" transform="matrix(-0.382683, -0.92388, 0.92388, -0.382683, -92.889885, 229.494446)" bx:shape="arrow 16.497 277.984 25 15 15 0.091 0 1@0a7c1545"/>
  <path d="M 16.497 277.984 H 41.406 L 41.406 277.984 L 41.497 285.484 L 41.406 292.984 L 41.406 292.984 H 16.497 V 277.984 Z" style="stroke: rgb(255, 221, 0); stroke-width: 0px; fill: rgb(229, 191, 23);" transform="matrix(-0.923879, -0.382684, 0.382684, -0.923879, 10.563014, 431.674805)" bx:shape="arrow 16.497 277.984 25 15 15 0.091 0 1@0a7c1545"/>
  <path d="M 14.344 300.576 H 39.251 L 39.251 300.576 L 39.344 308.076 L 39.251 315.576 L 39.251 315.576 H 14.344 V 300.576 Z" style="stroke: rgb(255, 221, 0); stroke-width: 0px; fill: rgb(229, 191, 23);" transform="matrix(1, -0.000045, 0.000045, 1, 303.766541, -102.755318)" bx:shape="arrow 14.344 300.576 25 15 15 0.093 0 1@89ba1e7d"/>
  <path d="M 16.497 277.984 H 41.406 L 41.406 277.984 L 41.497 285.484 L 41.406 292.984 L 41.406 292.984 H 16.497 V 277.984 Z" style="stroke: rgb(255, 221, 0); stroke-width: 0px; fill: rgb(229, 191, 23);" transform="matrix(0.707107, -0.707106, 0.707106, 0.707107, 73.102928, -63.391823)" bx:shape="arrow 16.497 277.984 25 15 15 0.091 0 1@0a7c1545"/>
  <path d="M 19.204 227.983 H 44.113 L 44.113 227.983 L 44.204 235.483 L 44.113 242.983 L 44.113 242.983 H 19.204 V 227.983 Z" style="stroke: rgb(255, 221, 0); stroke-width: 0px; fill: rgb(229, 191, 23);" transform="matrix(0.000067, -1, 1, 0.000067, -27.621935, 115.851967)" bx:shape="arrow 19.204 227.983 25 15 15 0.091 0 1@bbc719c1"/>
  <path d="M 16.497 277.984 H 41.406 L 41.406 277.984 L 41.497 285.484 L 41.406 292.984 L 41.406 292.984 H 16.497 V 277.984 Z" style="stroke: rgb(255, 221, 0); stroke-width: 0px; fill: rgb(229, 191, 23);" transform="matrix(0.92388, -0.382683, 0.382683, 0.92388, 184.306076, -99.143761)" bx:shape="arrow 16.497 277.984 25 15 15 0.091 0 1@0a7c1545"/>
  <path d="M 16.497 277.984 H 41.406 L 41.406 277.984 L 41.497 285.484 L 41.406 292.984 L 41.406 292.984 H 16.497 V 277.984 Z" style="stroke: rgb(255, 221, 0); stroke-width: 0px; fill: rgb(229, 191, 23);" transform="matrix(0.382684, -0.923879, 0.923879, 0.382684, -20.526554, 10.307224)" bx:shape="arrow 16.497 277.984 25 15 15 0.091 0 1@0a7c1545"/>
  <path d="M 14.344 300.576 H 39.251 L 39.251 300.576 L 39.344 308.076 L 39.251 315.576 L 39.251 315.576 H 14.344 V 300.576 Z" style="stroke: rgb(255, 221, 0); stroke-width: 0px; fill: rgb(229, 191, 23);" transform="matrix(-1, 0.000045, -0.000045, -1, 109.524368, 515.37146)" bx:shape="arrow 14.344 300.576 25 15 15 0.093 0 1@89ba1e7d"/>
  <path d="M 16.497 277.984 H 41.406 L 41.406 277.984 L 41.497 285.484 L 41.406 292.984 L 41.406 292.984 H 16.497 V 277.984 Z" style="stroke: rgb(255, 221, 0); stroke-width: 0px; fill: rgb(229, 191, 23);" transform="matrix(-0.707107, 0.707106, -0.707106, -0.707107, 339.158081, 476.722656)" bx:shape="arrow 16.497 277.984 25 15 15 0.091 0 1@0a7c1545"/>
  <path d="M 19.204 227.983 H 44.113 L 44.113 227.983 L 44.204 235.483 L 44.113 242.983 L 44.113 242.983 H 19.204 V 227.983 Z" style="stroke: rgb(255, 221, 0); stroke-width: 0px; fill: rgb(229, 191, 23);" transform="matrix(-0.000067, 1, -1, -0.000067, 444.190735, 298.393585)" bx:shape="arrow 19.204 227.983 25 15 15 0.091 0 1@bbc719c1"/>
  <path d="M 16.497 277.984 H 41.406 L 41.406 277.984 L 41.497 285.484 L 41.406 292.984 L 41.406 292.984 H 16.497 V 277.984 Z" style="stroke: rgb(255, 221, 0); stroke-width: 0px; fill: rgb(229, 191, 23);" transform="matrix(-0.92388, 0.382683, -0.382683, -0.92388, 227.32724, 507.889526)" bx:shape="arrow 16.497 277.984 25 15 15 0.091 0 1@0a7c1545"/>
  <path d="M 16.497 277.984 H 41.406 L 41.406 277.984 L 41.497 285.484 L 41.406 292.984 L 41.406 292.984 H 16.497 V 277.984 Z" style="stroke: rgb(255, 221, 0); stroke-width: 0px; fill: rgb(229, 191, 23);" transform="matrix(-0.382684, 0.923879, -0.923879, -0.382684, 433.603485, 404.063049)" bx:shape="arrow 16.497 277.984 25 15 15 0.091 0 1@0a7c1545"/>
</svg>