<?xml version="1.0" encoding="utf-8"?>
<svg viewBox="75.806 76.344 361.291 373.119" xmlns="http://www.w3.org/2000/svg" xmlns:bx="https://boxy-svg.com">
  <path d="M 28.688 300.576 H 78.501 L 78.501 300.576 L 78.688 308.076 L 78.501 315.576 L 78.501 315.576 H 28.688 V 300.576 Z" style="stroke: rgb(255, 221, 0); stroke-width: 0px; fill: rgb(229, 191, 23);" transform="matrix(0.000045, 1, -1, 0.000045, 512.658142, 254.332138)" bx:shape="arrow 28.688 300.576 50 15 15 0.187 0 1@f45d214b"/>
  <path d="M 32.994 277.984 H 82.812 L 82.812 277.984 L 82.994 285.484 L 82.812 292.984 L 82.812 292.984 H 32.994 V 277.984 Z" style="stroke: rgb(255, 221, 0); stroke-width: 0px; fill: rgb(229, 191, 23);" transform="matrix(0.707106, 0.707107, -0.707107, 0.707106, 437.573944, 35.12471)" bx:shape="arrow 32.994 277.984 50 15 15 0.182 0 1@694eca63"/>
  <path d="M 38.407 227.983 H 88.226 L 88.226 227.983 L 88.407 235.483 L 88.226 242.983 L 88.226 242.983 H 38.407 V 227.983 Z" style="stroke: rgb(255, 221, 0); stroke-width: 0px; fill: rgb(229, 191, 23);" transform="matrix(1, 0.000067, -0.000067, 1, 244.874954, -28.158718)" bx:shape="arrow 38.407 227.983 50 15 15 0.181 0 1@e6b01290"/>
  <ellipse style="fill-rule: nonzero; stroke: rgb(255, 221, 0); stroke-width: 0px; fill: rgb(229, 191, 23);" cx="207.795" cy="207.257" rx="100" ry="100"/>
  <path d="M 32.994 277.984 H 82.812 L 82.812 277.984 L 82.994 285.484 L 82.812 292.984 L 82.812 292.984 H 32.994 V 277.984 Z" style="stroke: rgb(255, 221, 0); stroke-width: 0px; fill: rgb(229, 191, 23);" transform="matrix(0.382683, 0.92388, -0.92388, 0.382683, 484.868896, 137.110992)" bx:shape="arrow 32.994 277.984 50 15 15 0.182 0 1@694eca63"/>
  <path d="M 32.994 277.984 H 82.812 L 82.812 277.984 L 82.994 285.484 L 82.812 292.984 L 82.812 292.984 H 32.994 V 277.984 Z" style="stroke: rgb(255, 221, 0); stroke-width: 0px; fill: rgb(229, 191, 23);" transform="matrix(0.923879, 0.382684, -0.382684, 0.923879, 357.044647, -41.382122)" bx:shape="arrow 32.994 277.984 50 15 15 0.182 0 1@694eca63"/>
  <path d="M 28.688 300.576 H 78.501 L 78.501 300.576 L 78.688 308.076 L 78.501 315.576 L 78.501 315.576 H 28.688 V 300.576 Z" style="stroke: rgb(255, 221, 0); stroke-width: 0px; fill: rgb(229, 191, 23);" transform="matrix(-0.000045, -1, 1, -0.000045, -97.163849, 158.323669)" bx:shape="arrow 28.688 300.576 50 15 15 0.187 0 1@f45d214b"/>
  <path d="M 32.994 277.984 H 82.812 L 82.812 277.984 L 82.994 285.484 L 82.812 292.984 L 82.812 292.984 H 32.994 V 277.984 Z" style="stroke: rgb(255, 221, 0); stroke-width: 0px; fill: rgb(229, 191, 23);" transform="matrix(-0.707106, -0.707107, 0.707107, -0.707106, -22.07962, 377.531067)" bx:shape="arrow 32.994 277.984 50 15 15 0.182 0 1@694eca63"/>
  <path d="M 38.407 227.983 H 88.226 L 88.226 227.983 L 88.407 235.483 L 88.226 242.983 L 88.226 242.983 H 38.407 V 227.983 Z" style="stroke: rgb(255, 221, 0); stroke-width: 0px; fill: rgb(229, 191, 23);" transform="matrix(-1, -0.000067, 0.000067, -1, 170.619354, 440.814514)" bx:shape="arrow 38.407 227.983 50 15 15 0.181 0 1@e6b01290"/>
  <path d="M 32.994 277.984 H 82.812 L 82.812 277.984 L 82.994 285.484 L 82.812 292.984 L 82.812 292.984 H 32.994 V 277.984 Z" style="stroke: rgb(255, 221, 0); stroke-width: 0px; fill: rgb(229, 191, 23);" transform="matrix(-0.382683, -0.92388, 0.92388, -0.382683, -69.374603, 275.5448)" bx:shape="arrow 32.994 277.984 50 15 15 0.182 0 1@694eca63"/>
  <path d="M 32.994 277.984 H 82.812 L 82.812 277.984 L 82.994 285.484 L 82.812 292.984 L 82.812 292.984 H 32.994 V 277.984 Z" style="stroke: rgb(255, 221, 0); stroke-width: 0px; fill: rgb(229, 191, 23);" transform="matrix(-0.923879, -0.382684, 0.382684, -0.923879, 58.449677, 454.037903)" bx:shape="arrow 32.994 277.984 50 15 15 0.182 0 1@694eca63"/>
  <path d="M 28.688 300.576 H 78.501 L 78.501 300.576 L 78.688 308.076 L 78.501 315.576 L 78.501 315.576 H 28.688 V 300.576 Z" style="stroke: rgb(255, 221, 0); stroke-width: 0px; fill: rgb(229, 191, 23);" transform="matrix(1, -0.000045, 0.000045, 1, 254.298782, -101.306267)" bx:shape="arrow 28.688 300.576 50 15 15 0.187 0 1@f45d214b"/>
  <path d="M 32.994 277.984 H 82.812 L 82.812 277.984 L 82.994 285.484 L 82.812 292.984 L 82.812 292.984 H 32.994 V 277.984 Z" style="stroke: rgb(255, 221, 0); stroke-width: 0px; fill: rgb(229, 191, 23);" transform="matrix(0.707107, -0.707106, 0.707106, 0.707107, 35.091408, -26.222042)" bx:shape="arrow 32.994 277.984 50 15 15 0.182 0 1@694eca63"/>
  <path d="M 38.407 227.983 H 88.226 L 88.226 227.983 L 88.407 235.483 L 88.226 242.983 L 88.226 242.983 H 38.407 V 227.983 Z" style="stroke: rgb(255, 221, 0); stroke-width: 0px; fill: rgb(229, 191, 23);" transform="matrix(0.000067, -1, 1, 0.000067, -24.966232, 170.240372)" bx:shape="arrow 38.407 227.983 50 15 15 0.181 0 1@e6b01290"/>
  <path d="M 32.994 277.984 H 82.812 L 82.812 277.984 L 82.994 285.484 L 82.812 292.984 L 82.812 292.984 H 32.994 V 277.984 Z" style="stroke: rgb(255, 221, 0); stroke-width: 0px; fill: rgb(229, 191, 23);" transform="matrix(0.92388, -0.382683, 0.382683, 0.92388, 137.077682, -73.517021)" bx:shape="arrow 32.994 277.984 50 15 15 0.182 0 1@694eca63"/>
  <path d="M 32.994 277.984 H 82.812 L 82.812 277.984 L 82.994 285.484 L 82.812 292.984 L 82.812 292.984 H 32.994 V 277.984 Z" style="stroke: rgb(255, 221, 0); stroke-width: 0px; fill: rgb(229, 191, 23);" transform="matrix(0.382684, -0.923879, 0.923879, 0.382684, -41.415428, 54.307255)" bx:shape="arrow 32.994 277.984 50 15 15 0.182 0 1@694eca63"/>
  <path d="M 28.688 300.576 H 78.501 L 78.501 300.576 L 78.688 308.076 L 78.501 315.576 L 78.501 315.576 H 28.688 V 300.576 Z" style="stroke: rgb(255, 221, 0); stroke-width: 0px; fill: rgb(229, 191, 23);" transform="matrix(-1, 0.000045, -0.000045, -1, 158.594681, 513.014771)" bx:shape="arrow 28.688 300.576 50 15 15 0.187 0 1@f45d214b"/>
  <path d="M 32.994 277.984 H 82.812 L 82.812 277.984 L 82.994 285.484 L 82.812 292.984 L 82.812 292.984 H 32.994 V 277.984 Z" style="stroke: rgb(255, 221, 0); stroke-width: 0px; fill: rgb(229, 191, 23);" transform="matrix(-0.707107, 0.707106, -0.707106, -0.707107, 377.802094, 437.930542)" bx:shape="arrow 32.994 277.984 50 15 15 0.182 0 1@694eca63"/>
  <path d="M 38.407 227.983 H 88.226 L 88.226 227.983 L 88.407 235.483 L 88.226 242.983 L 88.226 242.983 H 38.407 V 227.983 Z" style="stroke: rgb(255, 221, 0); stroke-width: 0px; fill: rgb(229, 191, 23);" transform="matrix(-0.000067, 1, -1, -0.000067, 441.085541, 245.231567)" bx:shape="arrow 38.407 227.983 50 15 15 0.181 0 1@e6b01290"/>
  <path d="M 32.994 277.984 H 82.812 L 82.812 277.984 L 82.994 285.484 L 82.812 292.984 L 82.812 292.984 H 32.994 V 277.984 Z" style="stroke: rgb(255, 221, 0); stroke-width: 0px; fill: rgb(229, 191, 23);" transform="matrix(-0.92388, 0.382683, -0.382683, -0.92388, 275.815826, 485.225525)" bx:shape="arrow 32.994 277.984 50 15 15 0.182 0 1@694eca63"/>
  <path d="M 32.994 277.984 H 82.812 L 82.812 277.984 L 82.994 285.484 L 82.812 292.984 L 82.812 292.984 H 32.994 V 277.984 Z" style="stroke: rgb(255, 221, 0); stroke-width: 0px; fill: rgb(229, 191, 23);" transform="matrix(-0.382684, 0.923879, -0.923879, -0.382684, 454.308929, 357.401245)" bx:shape="arrow 32.994 277.984 50 15 15 0.182 0 1@694eca63"/>
</svg>